<svg width="1467" height="390" viewBox="0 0 1467 390" fill="none" xmlns="http://www.w3.org/2000/svg">
<path d="M13.4 384C9.44 384 6.38 382.92 4.22 380.76C2.06 378.24 0.980003 375.18 0.980003 371.58V18.96C0.980003 15 2.06 11.94 4.22 9.77999C6.38 7.25998 9.44 5.99997 13.4 5.99997H40.94C44.9 5.99997 47.96 7.25998 50.12 9.77999C52.64 11.94 53.9 15 53.9 18.96V168H239.66V18.96C239.66 15 240.74 11.94 242.9 9.77999C245.42 7.25998 248.48 5.99997 252.08 5.99997H279.62C283.58 5.99997 286.64 7.25998 288.8 9.77999C291.32 11.94 292.58 15 292.58 18.96V371.58C292.58 375.18 291.32 378.24 288.8 380.76C286.64 382.92 283.58 384 279.62 384H252.08C248.48 384 245.42 382.92 242.9 380.76C240.74 378.24 239.66 375.18 239.66 371.58V216.6H53.9V371.58C53.9 375.18 52.64 378.24 50.12 380.76C47.96 382.92 44.9 384 40.94 384H13.4ZM560.901 389.4C523.821 389.4 494.301 378.06 472.341 355.38C450.381 332.34 438.321 301.02 436.161 261.42C435.801 256.74 435.621 250.8 435.621 243.6C435.621 236.04 435.801 229.92 436.161 225.24C437.601 199.68 443.541 177.36 453.981 158.28C464.421 138.84 478.641 123.9 496.641 113.46C515.001 103.02 536.421 97.8 560.901 97.8C588.261 97.8 611.121 103.56 629.481 115.08C648.201 126.6 662.421 142.98 672.141 164.22C681.861 185.46 686.721 210.3 686.721 238.74V247.92C686.721 251.88 685.461 254.94 682.941 257.1C680.781 259.26 677.901 260.34 674.301 260.34H487.461C487.461 260.7 487.461 261.42 487.461 262.5C487.461 263.58 487.461 264.48 487.461 265.2C488.181 279.96 491.421 293.82 497.181 306.78C502.941 319.38 511.221 329.64 522.021 337.56C532.821 345.48 545.781 349.44 560.901 349.44C573.861 349.44 584.661 347.46 593.301 343.5C601.941 339.54 608.961 335.22 614.361 330.54C619.761 325.5 623.361 321.72 625.161 319.2C628.401 314.52 630.921 311.82 632.721 311.1C634.521 310.02 637.401 309.48 641.361 309.48H667.281C670.881 309.48 673.761 310.56 675.921 312.72C678.441 314.52 679.521 317.22 679.161 320.82C678.801 326.22 675.921 332.88 670.521 340.8C665.121 348.36 657.381 355.92 647.301 363.48C637.221 371.04 624.981 377.34 610.581 382.38C596.181 387.06 579.621 389.4 560.901 389.4ZM487.461 223.08H635.421V221.46C635.421 205.26 632.361 190.86 626.241 178.26C620.481 165.66 612.021 155.76 600.861 148.56C589.701 141 576.381 137.22 560.901 137.22C545.421 137.22 532.101 141 520.941 148.56C510.141 155.76 501.861 165.66 496.101 178.26C490.341 190.86 487.461 205.26 487.461 221.46V223.08ZM834.449 384C830.849 384 827.789 382.92 825.269 380.76C823.109 378.24 822.029 375.18 822.029 371.58V13.02C822.029 9.41998 823.109 6.53999 825.269 4.38C827.789 1.85998 830.849 0.599979 834.449 0.599979H859.829C863.789 0.599979 866.849 1.85998 869.009 4.38C871.169 6.53999 872.249 9.41998 872.249 13.02V371.58C872.249 375.18 871.169 378.24 869.009 380.76C866.849 382.92 863.789 384 859.829 384H834.449ZM1035.96 384C1032.36 384 1029.3 382.92 1026.78 380.76C1024.62 378.24 1023.54 375.18 1023.54 371.58V13.02C1023.54 9.41998 1024.62 6.53999 1026.78 4.38C1029.3 1.85998 1032.36 0.599979 1035.96 0.599979H1061.34C1065.3 0.599979 1068.36 1.85998 1070.52 4.38C1072.68 6.53999 1073.76 9.41998 1073.76 13.02V371.58C1073.76 375.18 1072.68 378.24 1070.52 380.76C1068.36 382.92 1065.3 384 1061.34 384H1035.96ZM1339.53 389.4C1312.17 389.4 1289.31 384.18 1270.95 373.74C1252.59 363.3 1238.55 348.9 1228.83 330.54C1219.11 311.82 1213.71 290.58 1212.63 266.82C1212.27 260.7 1212.09 252.96 1212.09 243.6C1212.09 233.88 1212.27 226.14 1212.63 220.38C1213.71 196.26 1219.11 175.02 1228.83 156.66C1238.91 138.3 1253.13 123.9 1271.49 113.46C1289.85 103.02 1312.53 97.8 1339.53 97.8C1366.53 97.8 1389.21 103.02 1407.57 113.46C1425.93 123.9 1439.97 138.3 1449.69 156.66C1459.77 175.02 1465.35 196.26 1466.43 220.38C1466.79 226.14 1466.97 233.88 1466.97 243.6C1466.97 252.96 1466.79 260.7 1466.43 266.82C1465.35 290.58 1459.95 311.82 1450.23 330.54C1440.51 348.9 1426.47 363.3 1408.11 373.74C1389.75 384.18 1366.89 389.4 1339.53 389.4ZM1339.53 347.82C1361.85 347.82 1379.67 340.8 1392.99 326.76C1406.31 312.36 1413.51 291.48 1414.59 264.12C1414.95 258.72 1415.13 251.88 1415.13 243.6C1415.13 235.32 1414.95 228.48 1414.59 223.08C1413.51 195.72 1406.31 175.02 1392.99 160.98C1379.67 146.58 1361.85 139.38 1339.53 139.38C1317.21 139.38 1299.21 146.58 1285.53 160.98C1272.21 175.02 1265.19 195.72 1264.47 223.08C1264.11 228.48 1263.93 235.32 1263.93 243.6C1263.93 251.88 1264.11 258.72 1264.47 264.12C1265.19 291.48 1272.21 312.36 1285.53 326.76C1299.21 340.8 1317.21 347.82 1339.53 347.82Z" fill="#3A3A3A"/>
</svg>
