<svg width="52" height="52" viewBox="0 0 52 52" fill="none" xmlns="http://www.w3.org/2000/svg">
<circle cx="26" cy="26" r="26" fill="black"/>
<path d="M24.2758 31.668V34H15.7094V31.668H24.2758ZM16.5297 16.9375V34H13.5883V16.9375H16.5297ZM35.5258 29.6055C35.5258 29.2539 35.4711 28.9414 35.3617 28.668C35.2602 28.3945 35.0766 28.1445 34.8109 27.918C34.5453 27.6914 34.1703 27.4727 33.6859 27.2617C33.2094 27.043 32.6 26.8203 31.8578 26.5938C31.0453 26.3438 30.2953 26.0664 29.6078 25.7617C28.9281 25.4492 28.3344 25.0898 27.8266 24.6836C27.3188 24.2695 26.9242 23.7969 26.643 23.2656C26.3617 22.7266 26.2211 22.1055 26.2211 21.4023C26.2211 20.707 26.3656 20.0742 26.6547 19.5039C26.9516 18.9336 27.3695 18.4414 27.9086 18.0273C28.4555 17.6055 29.1 17.2812 29.8422 17.0547C30.5844 16.8203 31.4047 16.7031 32.3031 16.7031C33.5688 16.7031 34.6586 16.9375 35.5727 17.4062C36.4945 17.875 37.2016 18.5039 37.6938 19.293C38.1938 20.082 38.4438 20.9531 38.4438 21.9062H35.5258C35.5258 21.3438 35.4047 20.8477 35.1625 20.418C34.9281 19.9805 34.5688 19.6367 34.0844 19.3867C33.6078 19.1367 33.0023 19.0117 32.268 19.0117C31.5727 19.0117 30.9945 19.1172 30.5336 19.3281C30.0727 19.5391 29.7289 19.8242 29.5023 20.1836C29.2758 20.543 29.1625 20.9492 29.1625 21.4023C29.1625 21.7227 29.2367 22.0156 29.3852 22.2812C29.5336 22.5391 29.7602 22.7812 30.0648 23.0078C30.3695 23.2266 30.7523 23.4336 31.2133 23.6289C31.6742 23.8242 32.2172 24.0117 32.8422 24.1914C33.7875 24.4727 34.6117 24.7852 35.3148 25.1289C36.018 25.4648 36.6039 25.8477 37.0727 26.2773C37.5414 26.707 37.893 27.1953 38.1273 27.7422C38.3617 28.2812 38.4789 28.8945 38.4789 29.582C38.4789 30.3008 38.3344 30.9492 38.0453 31.5273C37.7563 32.0977 37.3422 32.5859 36.8031 32.9922C36.2719 33.3906 35.6313 33.6992 34.8813 33.918C34.1391 34.1289 33.3109 34.2344 32.3969 34.2344C31.5766 34.2344 30.768 34.125 29.9711 33.9062C29.182 33.6875 28.4633 33.3555 27.8148 32.9102C27.1664 32.457 26.6508 31.8945 26.268 31.2227C25.8852 30.543 25.6938 29.75 25.6938 28.8438H28.6352C28.6352 29.3984 28.7289 29.8711 28.9164 30.2617C29.1117 30.6523 29.3813 30.9727 29.725 31.2227C30.0688 31.4648 30.4672 31.6445 30.9203 31.7617C31.3813 31.8789 31.8734 31.9375 32.3969 31.9375C33.0844 31.9375 33.6586 31.8398 34.1195 31.6445C34.5883 31.4492 34.9398 31.1758 35.1742 30.8242C35.4086 30.4727 35.5258 30.0664 35.5258 29.6055Z" fill="white"/>
</svg>
