<svg width="4" height="6" viewBox="0 0 4 6" fill="none" xmlns="http://www.w3.org/2000/svg">
<path d="M1.848 4.344C2.05067 4.344 2.20533 4.21867 2.312 3.968C2.42133 3.71733 2.476 3.304 2.476 2.728V2.324C2.476 1.90267 2.42533 1.57733 2.324 1.348C2.22267 1.11867 2.07867 1.004 1.892 1.004H1.592V4.344H1.848ZM1.972 5.028C1.876 5.028 1.72667 5.02267 1.524 5.012C1.324 5.004 1.11733 5 0.904 5H0.268V0.312H0.904C1.08267 0.309333 1.27733 0.302667 1.488 0.292C1.69867 0.281333 1.864 0.276 1.984 0.276C2.664 0.276 3.15067 0.466667 3.444 0.848C3.74 1.22933 3.888 1.78533 3.888 2.516C3.888 2.764 3.87067 3 3.836 3.224C3.804 3.448 3.74267 3.67333 3.652 3.9C3.56133 4.124 3.44667 4.31733 3.308 4.48C3.16933 4.64267 2.98533 4.77467 2.756 4.876C2.52667 4.97733 2.26533 5.028 1.972 5.028Z" fill="#F7EFEF"/>
</svg>
